<?xml version="1.0" encoding="UTF-8"?>
<svg width="805px" height="774px" viewBox="0 0 805 774" version="1.1" xmlns="http://www.w3.org/2000/svg" xmlns:xlink="http://www.w3.org/1999/xlink">
    <title>Logo1</title>
    <g id="Logo1" stroke="none" stroke-width="1" fill="none" fill-rule="evenodd">
        <g id="Group-2" transform="translate(26.000000, 14.000000)">
            <circle id="Oval" stroke="#121F29" fill="#121F29" cx="375" cy="375" r="375"></circle>
            <g id="Group" transform="translate(129.000000, 75.000000)">
                <g id="Group-3" transform="translate(43.000000, 0.000000)" stroke="#0BD6BE">
                    <path d="M26,291 L188,291 L188,487 L51,487 C37.1928813,487 26,475.807119 26,462 L26,291 L26,291 Z" id="Rectangle" stroke-width="5" fill="#121F29"></path>
                    <path d="M42.5,121.5 L145.5,121.5 L145.5,289.5 C145.5,300.545695 136.545695,309.5 125.5,309.5 L62.5,309.5 C51.454305,309.5 42.5,300.545695 42.5,289.5 L42.5,121.5 L42.5,121.5 Z" id="Rectangle" fill="#0BD6BE" transform="translate(94.000000, 215.500000) scale(1, -1) rotate(90.000000) translate(-94.000000, -215.500000) "></path>
                    <path d="M255.5,123.5 L354.5,123.5 L354.5,287.5 C354.5,298.545695 345.545695,307.5 334.5,307.5 L275.5,307.5 C264.454305,307.5 255.5,298.545695 255.5,287.5 L255.5,123.5 L255.5,123.5 Z" id="Rectangle" stroke-width="5" fill="#121F29" transform="translate(305.000000, 215.500000) scale(-1, -1) rotate(90.000000) translate(-305.000000, -215.500000) "></path>
                    <path d="M211,289 L377,289 L377,489 L236,489 C222.192881,489 211,477.807119 211,464 L211,289 L211,289 Z" id="Rectangle" fill="#0BD6BE" transform="translate(294.000000, 389.000000) scale(-1, 1) translate(-294.000000, -389.000000) "></path>
                    <g id="palm" transform="translate(175.000000, 1.000000)" fill="#0BD6BE" fill-rule="nonzero" stroke-width="3">
                        <path d="M122.058253,62.1022749 C139.652463,56.6832762 159.111357,59.1158445 175.023379,69.4191044 C176.84347,70.5977019 176.85059,73.2732646 175.023379,74.456362 C155.033484,87.3999354 129.165113,88.0561701 108.431368,75.7384571 L83.2019206,100.985119 C106.375194,92.7101866 132.541855,95.4341232 153.742145,109.161428 C155.562236,110.340026 155.569356,113.015588 153.742145,114.198686 C128.024418,130.850923 94.9206515,131.350786 68.7093969,115.487156 L40.7792302,143.436755 C69.2752476,132.287139 101.935327,135.226321 128.235019,152.255424 C130.05511,153.434022 130.06223,156.109584 128.235019,157.292682 C96.9074996,177.577459 56.9104726,177.728955 25.6410371,158.585277 C3.52077078,180.720636 4.74016035,179.997278 3.00138727,179.997278 C0.354629898,179.997278 -1.01278022,176.771603 0.881508118,174.876022 L21.4009041,154.342625 C2.13762177,122.83361 2.56594453,82.8051675 22.6929923,51.6782678 C23.8756578,49.8494354 26.5493962,49.8573102 27.7271901,51.6782678 C44.7446821,77.9959045 47.6814848,110.678643 36.5394719,139.194103 L64.4700133,111.244505 C48.6542983,85.0761145 49.0818716,51.9433866 65.7576048,26.1537376 C66.9380218,24.3290301 69.6110107,24.3286551 70.7918025,26.1537376 C84.5097478,47.3692432 87.2314522,73.553758 78.9621623,96.7428427 L104.191984,71.495806 C91.9950909,50.9361601 92.4207905,25.0441385 105.473205,4.85835885 C106.653622,3.03365137 109.326611,3.03327638 110.507403,4.85835885 C120.803638,20.7812378 123.234173,40.253409 117.818869,57.8599988 L128.065264,47.6066127 C133.587367,23.8029174 152.433944,5.20147586 176.372427,0.0682204781 C178.492681,-0.386268931 180.387344,1.5006871 179.931665,3.63026247 C174.779051,27.6904518 156.048643,46.6121359 132.109785,52.0438843 L122.058253,62.1022749 Z" id="Path"></path>
                    </g>
                    <g id="palm" transform="translate(135.000000, 90.000000) scale(-1, 1) translate(-135.000000, -90.000000) translate(45.000000, 0.000000)" fill="#121F29" fill-rule="nonzero" stroke-width="5">
                        <path d="M122.058253,62.1022749 C139.652463,56.6832762 159.111357,59.1158445 175.023379,69.4191044 C176.84347,70.5977019 176.85059,73.2732646 175.023379,74.456362 C155.033484,87.3999354 129.165113,88.0561701 108.431368,75.7384571 L83.2019206,100.985119 C106.375194,92.7101866 132.541855,95.4341232 153.742145,109.161428 C155.562236,110.340026 155.569356,113.015588 153.742145,114.198686 C128.024418,130.850923 94.9206515,131.350786 68.7093969,115.487156 L40.7792302,143.436755 C69.2752476,132.287139 101.935327,135.226321 128.235019,152.255424 C130.05511,153.434022 130.06223,156.109584 128.235019,157.292682 C96.9074996,177.577459 56.9104726,177.728955 25.6410371,158.585277 C3.52077078,180.720636 4.74016035,179.997278 3.00138727,179.997278 C0.354629898,179.997278 -1.01278022,176.771603 0.881508118,174.876022 L21.4009041,154.342625 C2.13762177,122.83361 2.56594453,82.8051675 22.6929923,51.6782678 C23.8756578,49.8494354 26.5493962,49.8573102 27.7271901,51.6782678 C44.7446821,77.9959045 47.6814848,110.678643 36.5394719,139.194103 L64.4700133,111.244505 C48.6542983,85.0761145 49.0818716,51.9433866 65.7576048,26.1537376 C66.9380218,24.3290301 69.6110107,24.3286551 70.7918025,26.1537376 C84.5097478,47.3692432 87.2314522,73.553758 78.9621623,96.7428427 L104.191984,71.495806 C91.9950909,50.9361601 92.4207905,25.0441385 105.473205,4.85835885 C106.653622,3.03365137 109.326611,3.03327638 110.507403,4.85835885 C120.803638,20.7812378 123.234173,40.253409 117.818869,57.8599988 L128.065264,47.6066127 C133.587367,23.8029174 152.433944,5.20147586 176.372427,0.0682204781 C178.492681,-0.386268931 180.387344,1.5006871 179.931665,3.63026247 C174.779051,27.6904518 156.048643,46.6121359 132.109785,52.0438843 L122.058253,62.1022749 Z" id="Path"></path>
                    </g>
                </g>
                <text id="PsyGift" font-family="Nunito-Bold, Nunito" font-size="72" font-weight="bold" letter-spacing="2.07342857" fill="#0BD6BE">
                    <tspan x="110" y="567">PsyGift</tspan>
                </text>
            </g>
        </g>
    </g>
</svg>